<svg xmlns="http://www.w3.org/2000/svg" xmlns:xlink="http://www.w3.org/1999/xlink" version="1.1" id="Layer_1" x="0px" y="0px" viewBox="0 0 260.8 122.1" style="enable-background:new 0 0 260.8 122.1;" xml:space="preserve">
<path d="M72.1,59.7c4-1.5,7-4.9,7-10.9c0-8-4.9-12.2-14.5-12.2h-18v48.9h18.7c11.3,0,15.7-5.2,15.7-13.9C81,64.8,77.7,61,72.1,59.7   M53,42.4h11.3c5.7,0,8.3,2.1,8.3,7.5c0,5.1-2.5,7.6-7.9,7.6H53V42.4z M65.2,79.8H53v-17h12.1c6.3,0,9.3,2.6,9.3,8.3  C74.2,77.5,71.1,79.8,65.2,79.8z M108.8,35.7c-14.5,0-20.3,7.4-20.3,25.2c0,17.9,5.8,25.4,20.3,25.4c14.6,0,20.2-7.4,20.2-25.4  C129,43.1,123.4,35.7,108.8,35.7z M108.8,80.2c-9.6,0-13.2-4.2-13.2-19.1c0-15,3.6-19,13.2-19s13.2,4,13.2,19  C121.9,75.9,118.2,80.2,108.8,80.2z M170.8,50.5c0-9.5-5-13.9-15.7-13.9h-16.5v48.9h6.6V64.8h9.8l11,20.6h8l-12.8-21.8  C167.3,62.5,170.8,58,170.8,50.5z M154.8,59.5h-9.6V42.3h9.9c6.1,0,8.8,2.3,8.8,8.4C163.9,57.2,161.1,59.5,154.8,59.5z M214.2,59.5  v24c-3.5,1.7-8.9,2.8-14.2,2.8c-15.4,0-22-7.8-22-25.2c0-17.7,6.8-25.4,22.2-25.4c4.6,0,9.5,1,13,2.4l-0.8,6  c-3.4-1.4-7.4-2.3-11.9-2.3c-10.9,0-15.5,4.4-15.5,19.2c0,14.3,4.1,19,14.8,19c3.3,0,6.1-0.5,8.5-1.4V64.8h-7.3l-0.7-5.3  C200.4,59.5,214.2,59.5,214.2,59.5z"/>
</svg>