<svg id="" data-name="" xmlns="http://www.w3.org/2000/svg" width="20" height="20" viewBox="0 0 20 20">
<path d="M18.66,5A10,10,0,0,0,15,1.34,9.78,9.78,0,0,0,10,0,9.78,9.78,0,0,0,5,1.34,10,10,0,0,0,1.34,5,9.78,9.78,0,0,0,0,10a9.78,9.78,0,0,0,1.34,5A10,10,0,0,0,5,18.66,9.78,9.78,0,0,0,10,20a9.78,9.78,0,0,0,5-1.34A10,10,0,0,0,18.66,15,9.78,9.78,0,0,0,20,10,9.78,9.78,0,0,0,18.66,5ZM10,1.46a8.23,8.23,0,0,1,5.64,2.14l-.16.23a5.66,5.66,0,0,1-.49.53,8.38,8.38,0,0,1-.85.74,11.43,11.43,0,0,1-1.26.8,12.08,12.08,0,0,1-1.69.79,37.13,37.13,0,0,0-3.2-5A8.61,8.61,0,0,1,10,1.46ZM3.31,4.7a8.43,8.43,0,0,1,3-2.42A44.82,44.82,0,0,1,9.53,7.2a30.89,30.89,0,0,1-7.89,1A8.44,8.44,0,0,1,3.31,4.7ZM2,13.08A8.38,8.38,0,0,1,1.46,10a2.12,2.12,0,0,1,0-.27,30.45,30.45,0,0,0,8.76-1.21q.42.81.69,1.45l-.17.06-.17,0-.48.17a10,10,0,0,0-1.3.62q-.8.44-1.7,1.05a11.63,11.63,0,0,0-1.86,1.62A10.91,10.91,0,0,0,3.65,15.7,8.55,8.55,0,0,1,2,13.08Zm8,5.46a8.38,8.38,0,0,1-5.44-2l.2.14A7,7,0,0,1,6.09,14.8,11.32,11.32,0,0,1,7.8,13.31a16.81,16.81,0,0,1,1.78-1.07q1-.5,1.32-.64l.56-.22h.05a35.2,35.2,0,0,1,1.82,6.48A8.54,8.54,0,0,1,10,18.54Zm7.19-3.93a8.53,8.53,0,0,1-2.41,2.47A36.69,36.69,0,0,0,13.11,11a12.3,12.3,0,0,1,5.33.38A8.43,8.43,0,0,1,17.19,14.62Zm1.22-4.73-.33-.06-.48-.08L17,9.66l-.74-.07-.83-.05-.9,0-1,0q-.5,0-1,.09a1.54,1.54,0,0,1-.1-.21l-.08-.23L11.84,8a13.37,13.37,0,0,0,1.71-.84,13.3,13.3,0,0,0,1.3-.85,10.82,10.82,0,0,0,.92-.79,7.5,7.5,0,0,0,.57-.58l.25-.32h0a8.35,8.35,0,0,1,1.94,5.34Z"></path>
</svg>