<svg id="case2" class="wave__svg" data-name="2" xmlns="http://www.w3.org/2000/svg" width="2232.68" height="518.45" viewBox="0 0 2232.68 518.45">
<path d="M2189.55,51.5c69.53,48.13-36.41,296.25-56.61,363.92-38.1,14.36-211.85,21.16-245.28,24.5-41.8,4.18-179-16.29-346.82-1s-277.07,8.08-429.51,11.24S811.42,471,735.8,478.59s-218.26-6.85-316.27-12.13-159.61,11.92-167.66-8.38S127,401.42,120.58,391.29C81,328.76,48.51,294.77,27.27,277.69c-33.59-27-39-11.66,0,0,42.29,12.63,136.77,20.93,304.22-33.6C1069.94,3.66,1348.58,170.51,1870.39,55.74,2282.87-35,2091.54,1,2189.55,51.5Z" style="fill: #e4f1f0;fill-opacity: 0.800000011920929"></path>
<path d="M2212.62,147.08c66.78,51.87-52.6,293.81-76.49,360.28-38.82,12.24-212.68,9.51-246.25,11-42,1.87-177.84-26.09-346.24-20.06s-277.09-7.13-429.48-12.32-300.6,4.43-376.53,7.82S520.08,475,422.5,464.35s-160,3.15-167-17.56S134,383.38,128.13,372.91C92,308.3,61.45,272.58,41.19,254.37c-32.06-28.8-38.34-13.78,0,0C82.72,269.3,176.6,282.77,346.8,237.51c750.52-199.58,1019.59-17.71,1546.92-103.7C2310.54,65.83,2117.53,91.27,2212.62,147.08Z" style="fill: #fff"></path>
</svg>