
<svg id="case1" class="wave__svg" data-name="ะก" xmlns="http://www.w3.org/2000/svg" width="2244.77" height="438.85" viewBox="0 0 2244.77 438.85">
<path d="M45,379.87c-64.53-54.65,65-291.32,91.67-356.72,39.31-10.59,212.9-.5,246.5-.58,42-.1,176.58,33.59,345.08,34.69s276.55,18.85,428.57,30.5,300.52,8.3,376.52,8.12,216.57,28,313.6,42.77,160,3.63,166.06,24.61,118.78,68.49,124.18,79.21c33.34,66.09,62.37,103.07,81.84,122.11,30.81,30.13,37.73,15.39,0,0-40.86-16.67-134.09-34.1-306,3.91C1154.66,536.13,893.54,343,363,406.63-56.3,456.9,137.62,439.66,45,379.87Z" style="fill: #e4f1f0;fill-opacity: 0.800000011920929"></path>
<path d="M19.67,369.06c-66.42-52.34,54.67-293.43,79-359.73,38.91-12,212.75-8,246.33-9.27C387-1.52,522.67,27.4,691.11,22.56s277,9.08,429.38,15.36,300.62-2.31,376.57-5.17S1714.48,53.08,1812,64.42s160-2,166.82,18.74,121.12,64.26,126.9,74.78c35.65,64.87,66,100.8,86.1,119.15,31.85,29,38.24,14,0,0-41.42-15.22-135.21-29.35-305.72,14.71C1134.17,486.07,866.4,302.31,338.48,384.58-78.83,449.61,114.36,425.54,19.67,369.06Z" style="fill: #fff"></path>
</svg>