<svg id="Слой_1" data-name="Слой 1" xmlns="http://www.w3.org/2000/svg" width="2306.36" height="1171.73" viewBox="0 0 2306.36 1171.73">
  <title>home__header</title>
  <path d="M-418.34,680.63c-290.41-55.8-531.5-94-539.66-112.63,8.16-169.79,348.72-689,372.79-766C-569.56-248.12-455-368.43-398.45-381.68s320.64-11.94,549.25,59.46L832.33-109.35c315,98.39,302.08,151.45,402.88,237.94s116.58,309.33,67.12,502.88-76.08,70.19-204.51,37.19C958.24,632.8,642.24,392.06,369.21,464.89,144.63,524.79-46.65,752-418.34,680.63Z" transform="translate(958 419.68)" style="fill: #0d4545"/>
  <path d="M-406.75,645.7C-695.38,581.33-896.9,540.35-904.5,521.5c13.18-169.47,330.62-682.69,357-759C-530.41-287.12-412.32-404-355.43-415.56S-34.57-418,191.82-339.87l674.93,233C1178.69.75,1164.22,53.41,1262.42,142.84s107.37,312.64,52.2,504.65-78.12,67.9-205.51,31.12c-138.46-40-447.2-290-722.27-225.25C160.59,506.59-37.33,728.08-406.75,645.7Z" transform="translate(958 419.68)" style="fill: #0f4848"/>
</svg>
